<mxfile host="app.diagrams.net" agent="Mozilla/5.0 (Windows NT 10.0; Win64; x64) AppleWebKit/537.36 (KHTML, like Gecko) Chrome/132.0.0.0 Safari/537.36" version="26.0.12">
  <diagram name="Page-1" id="0783ab3e-0a74-02c8-0abd-f7b4e66b4bec">
    <mxGraphModel dx="1720" dy="743" grid="1" gridSize="10" guides="1" tooltips="1" connect="1" arrows="1" fold="1" page="1" pageScale="1" pageWidth="850" pageHeight="1100" background="none" math="0" shadow="0">
      <root>
        <mxCell id="0" />
        <mxCell id="1" parent="0" />
        <mxCell id="1c1d494c118603dd-1" value="SOCIAL APP" style="swimlane;html=1;childLayout=stackLayout;startSize=20;rounded=0;shadow=0;comic=0;labelBackgroundColor=none;strokeWidth=1;fontFamily=Verdana;fontSize=12;align=center;" parent="1" vertex="1">
          <mxGeometry x="40" y="20" width="780" height="990" as="geometry" />
        </mxCell>
        <mxCell id="1c1d494c118603dd-2" value="DATABASES" style="swimlane;html=1;startSize=20;fillColor=light-dark(#FFE599,var(--ge-dark-color, #121212));" parent="1c1d494c118603dd-1" vertex="1">
          <mxGeometry y="20" width="250" height="970" as="geometry" />
        </mxCell>
        <mxCell id="9cDfr85fsHuK26jGcrTP-3" value="Postgres (metadata)" style="shape=cylinder3;whiteSpace=wrap;html=1;boundedLbl=1;backgroundOutline=1;size=15;" vertex="1" parent="1c1d494c118603dd-2">
          <mxGeometry x="70" y="40" width="90" height="90" as="geometry" />
        </mxCell>
        <mxCell id="9cDfr85fsHuK26jGcrTP-5" value="CosmosDB&lt;div&gt;(message-body)&lt;/div&gt;" style="shape=cylinder3;whiteSpace=wrap;html=1;boundedLbl=1;backgroundOutline=1;size=15;" vertex="1" parent="1c1d494c118603dd-2">
          <mxGeometry x="30" y="180" width="80" height="90" as="geometry" />
        </mxCell>
        <mxCell id="9cDfr85fsHuK26jGcrTP-33" style="edgeStyle=none;rounded=0;html=1;labelBackgroundColor=none;startArrow=none;startFill=0;startSize=5;endArrow=classicThin;endFill=1;endSize=5;jettySize=auto;orthogonalLoop=1;strokeWidth=1;fontFamily=Verdana;fontSize=12;entryX=0.5;entryY=1;entryDx=0;entryDy=0;exitX=-0.025;exitY=0.653;exitDx=0;exitDy=0;exitPerimeter=0;entryPerimeter=0;strokeColor=light-dark(#FF6666,#FFFFFF);" edge="1" parent="1c1d494c118603dd-2" target="9cDfr85fsHuK26jGcrTP-3">
          <mxGeometry relative="1" as="geometry">
            <mxPoint x="157.75" y="279.59000000000015" as="sourcePoint" />
            <mxPoint x="90" y="240" as="targetPoint" />
          </mxGeometry>
        </mxCell>
        <mxCell id="9cDfr85fsHuK26jGcrTP-37" value="save data" style="rounded=0;whiteSpace=wrap;html=1;shadow=0;comic=0;labelBackgroundColor=none;strokeWidth=1;fontFamily=Verdana;fontSize=12;align=center;arcSize=50;" vertex="1" parent="1c1d494c118603dd-2">
          <mxGeometry x="180" y="260" width="61.5" height="30" as="geometry" />
        </mxCell>
        <mxCell id="9cDfr85fsHuK26jGcrTP-43" value="Firebase&lt;div&gt;(Cloud Messaging)&lt;/div&gt;" style="shape=cylinder3;whiteSpace=wrap;html=1;boundedLbl=1;backgroundOutline=1;size=15;" vertex="1" parent="1c1d494c118603dd-2">
          <mxGeometry x="30" y="640" width="90" height="90" as="geometry" />
        </mxCell>
        <mxCell id="9cDfr85fsHuK26jGcrTP-45" style="edgeStyle=orthogonalEdgeStyle;rounded=0;orthogonalLoop=1;jettySize=auto;html=1;exitX=0.5;exitY=1;exitDx=0;exitDy=0;strokeColor=light-dark(#FF0000,#FFFFFF);" edge="1" parent="1c1d494c118603dd-2" source="9cDfr85fsHuK26jGcrTP-44">
          <mxGeometry relative="1" as="geometry">
            <mxPoint x="170" y="540" as="targetPoint" />
          </mxGeometry>
        </mxCell>
        <mxCell id="9cDfr85fsHuK26jGcrTP-44" value="&lt;div&gt;Receiver is offline&lt;/div&gt;" style="rounded=0;whiteSpace=wrap;html=1;shadow=0;comic=0;labelBackgroundColor=none;strokeWidth=1;fontFamily=Verdana;fontSize=12;align=center;arcSize=50;" vertex="1" parent="1c1d494c118603dd-2">
          <mxGeometry x="110" y="450" width="120" height="30" as="geometry" />
        </mxCell>
        <mxCell id="9cDfr85fsHuK26jGcrTP-46" value="&lt;div&gt;push notification&lt;/div&gt;" style="rounded=0;whiteSpace=wrap;html=1;shadow=0;comic=0;labelBackgroundColor=none;strokeWidth=1;fontFamily=Verdana;fontSize=12;align=center;arcSize=50;" vertex="1" parent="1c1d494c118603dd-2">
          <mxGeometry x="110" y="550" width="120" height="30" as="geometry" />
        </mxCell>
        <mxCell id="9cDfr85fsHuK26jGcrTP-47" style="edgeStyle=orthogonalEdgeStyle;rounded=0;orthogonalLoop=1;jettySize=auto;html=1;exitX=0.5;exitY=1;exitDx=0;exitDy=0;entryX=0.5;entryY=0;entryDx=0;entryDy=0;entryPerimeter=0;strokeColor=light-dark(#FF0000,#FFFFFF);" edge="1" parent="1c1d494c118603dd-2" source="9cDfr85fsHuK26jGcrTP-46" target="9cDfr85fsHuK26jGcrTP-43">
          <mxGeometry relative="1" as="geometry" />
        </mxCell>
        <mxCell id="9cDfr85fsHuK26jGcrTP-61" value="&lt;b&gt;&lt;font style=&quot;color: rgb(255, 255, 255);&quot;&gt;message_id&lt;/font&gt;&lt;/b&gt;&lt;div&gt;&lt;b&gt;&lt;font style=&quot;color: rgb(255, 255, 255);&quot;&gt;content&lt;/font&gt;&lt;/b&gt;&lt;/div&gt;" style="text;html=1;align=center;verticalAlign=middle;resizable=0;points=[];autosize=1;strokeColor=#FF0000;fillColor=#000000;" vertex="1" parent="1c1d494c118603dd-2">
          <mxGeometry x="25" y="280" width="90" height="40" as="geometry" />
        </mxCell>
        <mxCell id="9cDfr85fsHuK26jGcrTP-62" value="&lt;b&gt;&lt;font style=&quot;color: rgb(255, 255, 255);&quot;&gt;sender&lt;/font&gt;&lt;/b&gt;&lt;div&gt;&lt;b&gt;&lt;font style=&quot;color: rgb(255, 255, 255);&quot;&gt;receiver&lt;/font&gt;&lt;/b&gt;&lt;/div&gt;&lt;div&gt;&lt;b&gt;&lt;font style=&quot;color: rgb(255, 255, 255);&quot;&gt;timestamp&lt;/font&gt;&lt;/b&gt;&lt;/div&gt;" style="text;html=1;align=center;verticalAlign=middle;resizable=0;points=[];autosize=1;strokeColor=#FF0000;fillColor=#000000;" vertex="1" parent="1c1d494c118603dd-2">
          <mxGeometry x="160" y="55" width="80" height="60" as="geometry" />
        </mxCell>
        <mxCell id="1c1d494c118603dd-3" value="BACKEND" style="swimlane;html=1;startSize=20;" parent="1c1d494c118603dd-1" vertex="1">
          <mxGeometry x="250" y="20" width="280" height="970" as="geometry" />
        </mxCell>
        <mxCell id="9cDfr85fsHuK26jGcrTP-2" value="FastAPI WebSocket" style="rounded=0;whiteSpace=wrap;html=1;shadow=0;comic=0;labelBackgroundColor=none;strokeWidth=1;fontFamily=Verdana;fontSize=12;align=center;arcSize=50;" vertex="1" parent="1c1d494c118603dd-3">
          <mxGeometry x="41.5" y="120" width="145" height="30" as="geometry" />
        </mxCell>
        <mxCell id="9cDfr85fsHuK26jGcrTP-18" value="&lt;b&gt;&lt;font style=&quot;color: rgb(255, 255, 255);&quot;&gt;Receiving the message&lt;/font&gt;&lt;/b&gt;" style="text;html=1;align=center;verticalAlign=middle;resizable=0;points=[];autosize=1;strokeColor=#FF0000;fillColor=#000000;rotation=35;" vertex="1" parent="1c1d494c118603dd-3">
          <mxGeometry x="135" y="190" width="160" height="30" as="geometry" />
        </mxCell>
        <mxCell id="9cDfr85fsHuK26jGcrTP-20" value="JWT Authentication" style="rounded=0;whiteSpace=wrap;html=1;shadow=0;comic=0;labelBackgroundColor=none;strokeWidth=1;fontFamily=Verdana;fontSize=12;align=center;arcSize=50;" vertex="1" parent="1c1d494c118603dd-3">
          <mxGeometry x="41.5" y="260" width="148.5" height="30" as="geometry" />
        </mxCell>
        <mxCell id="9cDfr85fsHuK26jGcrTP-21" value="&lt;b&gt;&lt;font style=&quot;color: rgb(255, 255, 255);&quot;&gt;Validates the request&lt;/font&gt;&lt;/b&gt;" style="text;html=1;align=center;verticalAlign=middle;resizable=0;points=[];autosize=1;strokeColor=#FF0000;fillColor=#000000;" vertex="1" parent="1c1d494c118603dd-3">
          <mxGeometry x="44" y="230" width="140" height="30" as="geometry" />
        </mxCell>
        <mxCell id="9cDfr85fsHuK26jGcrTP-24" style="edgeStyle=orthogonalEdgeStyle;rounded=0;orthogonalLoop=1;jettySize=auto;html=1;entryX=0.499;entryY=0.083;entryDx=0;entryDy=0;entryPerimeter=0;strokeColor=light-dark(#FF0000,#FFFFFF);" edge="1" parent="1c1d494c118603dd-3" source="9cDfr85fsHuK26jGcrTP-2" target="9cDfr85fsHuK26jGcrTP-21">
          <mxGeometry relative="1" as="geometry" />
        </mxCell>
        <mxCell id="9cDfr85fsHuK26jGcrTP-60" style="edgeStyle=orthogonalEdgeStyle;rounded=0;orthogonalLoop=1;jettySize=auto;html=1;exitX=0.5;exitY=1;exitDx=0;exitDy=0;entryX=0.5;entryY=0;entryDx=0;entryDy=0;strokeColor=light-dark(#FF0000,#FFFFFF);" edge="1" parent="1c1d494c118603dd-3" source="9cDfr85fsHuK26jGcrTP-31" target="9cDfr85fsHuK26jGcrTP-49">
          <mxGeometry relative="1" as="geometry">
            <Array as="points">
              <mxPoint x="2" y="440" />
              <mxPoint x="116" y="440" />
            </Array>
          </mxGeometry>
        </mxCell>
        <mxCell id="9cDfr85fsHuK26jGcrTP-31" value="Redis Pub/Sub&lt;div&gt;(notify users)&lt;/div&gt;" style="rounded=0;whiteSpace=wrap;html=1;shadow=0;comic=0;labelBackgroundColor=none;strokeWidth=1;fontFamily=Verdana;fontSize=12;align=center;arcSize=50;" vertex="1" parent="1c1d494c118603dd-3">
          <mxGeometry x="-70" y="360" width="145" height="60" as="geometry" />
        </mxCell>
        <mxCell id="9cDfr85fsHuK26jGcrTP-58" style="edgeStyle=orthogonalEdgeStyle;rounded=0;orthogonalLoop=1;jettySize=auto;html=1;exitX=0.5;exitY=1;exitDx=0;exitDy=0;strokeColor=light-dark(#FF0000,#FFFFFF);" edge="1" parent="1c1d494c118603dd-3" source="9cDfr85fsHuK26jGcrTP-49">
          <mxGeometry relative="1" as="geometry">
            <mxPoint x="115.5675675675675" y="540" as="targetPoint" />
          </mxGeometry>
        </mxCell>
        <mxCell id="9cDfr85fsHuK26jGcrTP-49" value="&lt;div&gt;Receiver is online&lt;/div&gt;" style="rounded=0;whiteSpace=wrap;html=1;shadow=0;comic=0;labelBackgroundColor=none;strokeWidth=1;fontFamily=Verdana;fontSize=12;align=center;arcSize=50;" vertex="1" parent="1c1d494c118603dd-3">
          <mxGeometry x="55.75" y="450" width="120" height="30" as="geometry" />
        </mxCell>
        <mxCell id="9cDfr85fsHuK26jGcrTP-50" value="&lt;div&gt;send message&lt;/div&gt;" style="rounded=0;whiteSpace=wrap;html=1;shadow=0;comic=0;labelBackgroundColor=none;strokeWidth=1;fontFamily=Verdana;fontSize=12;align=center;arcSize=50;" vertex="1" parent="1c1d494c118603dd-3">
          <mxGeometry x="60" y="550" width="115.75" height="30" as="geometry" />
        </mxCell>
        <mxCell id="1c1d494c118603dd-4" value="FRONTEND" style="swimlane;html=1;startSize=20;" parent="1c1d494c118603dd-1" vertex="1">
          <mxGeometry x="530" y="20" width="250" height="970" as="geometry" />
        </mxCell>
        <mxCell id="9cDfr85fsHuK26jGcrTP-11" style="edgeStyle=orthogonalEdgeStyle;rounded=0;orthogonalLoop=1;jettySize=auto;html=1;entryX=0.496;entryY=-0.048;entryDx=0;entryDy=0;entryPerimeter=0;strokeColor=light-dark(#FF0000,#FFFFFF);" edge="1" parent="1c1d494c118603dd-4" source="9cDfr85fsHuK26jGcrTP-1" target="9cDfr85fsHuK26jGcrTP-12">
          <mxGeometry relative="1" as="geometry">
            <mxPoint x="125" y="110" as="targetPoint" />
          </mxGeometry>
        </mxCell>
        <mxCell id="9cDfr85fsHuK26jGcrTP-1" value="WebSocket API" style="rounded=0;whiteSpace=wrap;html=1;shadow=0;comic=0;labelBackgroundColor=none;strokeWidth=1;fontFamily=Verdana;fontSize=12;align=center;arcSize=50;" vertex="1" parent="1c1d494c118603dd-4">
          <mxGeometry x="65" y="50" width="120" height="30" as="geometry" />
        </mxCell>
        <mxCell id="9cDfr85fsHuK26jGcrTP-8" value="&lt;div style=&quot;&quot;&gt;&lt;span style=&quot;background-color: transparent; color: light-dark(rgb(0, 0, 0), rgb(255, 255, 255));&quot;&gt;{&lt;/span&gt;&lt;/div&gt;&lt;div&gt;&lt;div style=&quot;&quot;&gt;&amp;nbsp; &quot;sender&quot;: &quot;user123&quot;,&lt;/div&gt;&lt;div style=&quot;&quot;&gt;&amp;nbsp; &quot;receiver&quot;: &quot;user456&quot;,&lt;/div&gt;&lt;div style=&quot;&quot;&gt;&amp;nbsp; &quot;message&quot;: &quot;Hey, how are you?&quot;,&lt;/div&gt;&lt;div style=&quot;&quot;&gt;&amp;nbsp; &quot;timestamp&quot;: &quot;2025-02-12T22:54:00Z&quot;&lt;/div&gt;&lt;div style=&quot;&quot;&gt;}&lt;/div&gt;&lt;/div&gt;&lt;div style=&quot;&quot;&gt;&lt;br&gt;&lt;/div&gt;" style="rounded=0;whiteSpace=wrap;html=1;shadow=0;comic=0;labelBackgroundColor=none;strokeWidth=1;fontFamily=Verdana;fontSize=12;align=left;arcSize=50;" vertex="1" parent="1c1d494c118603dd-4">
          <mxGeometry x="10" y="160" width="230" height="220" as="geometry" />
        </mxCell>
        <mxCell id="9cDfr85fsHuK26jGcrTP-12" value="&lt;b&gt;&lt;font style=&quot;color: rgb(255, 255, 255);&quot;&gt;Message Object&lt;/font&gt;&lt;/b&gt;" style="text;html=1;align=center;verticalAlign=middle;resizable=0;points=[];autosize=1;strokeColor=#FF0000;fillColor=#000000;" vertex="1" parent="1c1d494c118603dd-4">
          <mxGeometry x="70" y="130" width="110" height="30" as="geometry" />
        </mxCell>
        <mxCell id="9cDfr85fsHuK26jGcrTP-59" style="edgeStyle=orthogonalEdgeStyle;rounded=0;orthogonalLoop=1;jettySize=auto;html=1;exitX=1;exitY=0.5;exitDx=0;exitDy=0;entryX=0.5;entryY=1;entryDx=0;entryDy=0;strokeColor=light-dark(#FF0000,#FFFFFF);" edge="1" parent="1c1d494c118603dd-4" source="9cDfr85fsHuK26jGcrTP-52" target="9cDfr85fsHuK26jGcrTP-54">
          <mxGeometry relative="1" as="geometry" />
        </mxCell>
        <mxCell id="9cDfr85fsHuK26jGcrTP-52" value="&lt;div&gt;WebSockets (Socket.io)&lt;/div&gt;&lt;div&gt;receive&lt;/div&gt;" style="rounded=0;whiteSpace=wrap;html=1;shadow=0;comic=0;labelBackgroundColor=none;strokeWidth=1;fontFamily=Verdana;fontSize=12;align=center;arcSize=50;" vertex="1" parent="1c1d494c118603dd-4">
          <mxGeometry x="-55" y="640" width="125" height="70" as="geometry" />
        </mxCell>
        <mxCell id="9cDfr85fsHuK26jGcrTP-54" value="Chat UI" style="swimlane;whiteSpace=wrap;html=1;" vertex="1" parent="1c1d494c118603dd-4">
          <mxGeometry x="60" y="435" width="130" height="100" as="geometry" />
        </mxCell>
        <mxCell id="9cDfr85fsHuK26jGcrTP-56" value="Updated chat&amp;nbsp;&lt;div&gt;(real time)&lt;/div&gt;" style="text;html=1;align=center;verticalAlign=middle;resizable=0;points=[];autosize=1;strokeColor=none;fillColor=none;" vertex="1" parent="9cDfr85fsHuK26jGcrTP-54">
          <mxGeometry x="15" y="45" width="100" height="40" as="geometry" />
        </mxCell>
        <mxCell id="1c1d494c118603dd-40" style="edgeStyle=none;rounded=0;html=1;labelBackgroundColor=none;startArrow=none;startFill=0;startSize=5;endArrow=classicThin;endFill=1;endSize=5;jettySize=auto;orthogonalLoop=1;strokeWidth=1;fontFamily=Verdana;fontSize=12;entryX=0.5;entryY=1;entryDx=0;entryDy=0;exitX=0;exitY=0.5;exitDx=0;exitDy=0;strokeColor=light-dark(#FF0000,#FFFFFF);" parent="1c1d494c118603dd-1" source="9cDfr85fsHuK26jGcrTP-8" target="9cDfr85fsHuK26jGcrTP-2" edge="1">
          <mxGeometry relative="1" as="geometry">
            <mxPoint x="364" y="470" as="sourcePoint" />
            <mxPoint x="465" y="395" as="targetPoint" />
          </mxGeometry>
        </mxCell>
        <mxCell id="9cDfr85fsHuK26jGcrTP-25" style="edgeStyle=orthogonalEdgeStyle;rounded=0;orthogonalLoop=1;jettySize=auto;html=1;exitX=0;exitY=0.5;exitDx=0;exitDy=0;entryX=1;entryY=0.5;entryDx=0;entryDy=0;strokeColor=light-dark(#FF0000,#FFFFFF);" edge="1" parent="1c1d494c118603dd-1" source="9cDfr85fsHuK26jGcrTP-20" target="9cDfr85fsHuK26jGcrTP-37">
          <mxGeometry relative="1" as="geometry">
            <mxPoint x="280" y="295" as="targetPoint" />
          </mxGeometry>
        </mxCell>
        <mxCell id="9cDfr85fsHuK26jGcrTP-42" value="" style="edgeStyle=none;orthogonalLoop=1;jettySize=auto;html=1;rounded=0;exitX=0.5;exitY=1;exitDx=0;exitDy=0;entryX=0.5;entryY=0;entryDx=0;entryDy=0;strokeColor=light-dark(#FF0000,#FFFFFF);" edge="1" parent="1c1d494c118603dd-1" source="9cDfr85fsHuK26jGcrTP-37" target="9cDfr85fsHuK26jGcrTP-31">
          <mxGeometry width="100" relative="1" as="geometry">
            <mxPoint x="340" y="520" as="sourcePoint" />
            <mxPoint x="440" y="520" as="targetPoint" />
            <Array as="points" />
          </mxGeometry>
        </mxCell>
        <mxCell id="9cDfr85fsHuK26jGcrTP-48" style="edgeStyle=orthogonalEdgeStyle;rounded=0;orthogonalLoop=1;jettySize=auto;html=1;exitX=0.5;exitY=1;exitDx=0;exitDy=0;entryX=0.5;entryY=0;entryDx=0;entryDy=0;strokeColor=light-dark(#FF0000,#FFFFFF);" edge="1" parent="1c1d494c118603dd-1" source="9cDfr85fsHuK26jGcrTP-31" target="9cDfr85fsHuK26jGcrTP-44">
          <mxGeometry relative="1" as="geometry" />
        </mxCell>
        <mxCell id="9cDfr85fsHuK26jGcrTP-53" style="edgeStyle=orthogonalEdgeStyle;rounded=0;orthogonalLoop=1;jettySize=auto;html=1;exitX=0.5;exitY=1;exitDx=0;exitDy=0;entryX=0.5;entryY=0;entryDx=0;entryDy=0;strokeColor=light-dark(#FF0000,#FFFFFF);" edge="1" parent="1c1d494c118603dd-1" source="9cDfr85fsHuK26jGcrTP-50" target="9cDfr85fsHuK26jGcrTP-52">
          <mxGeometry relative="1" as="geometry" />
        </mxCell>
        <mxCell id="9cDfr85fsHuK26jGcrTP-34" style="edgeStyle=none;rounded=0;html=1;labelBackgroundColor=none;startArrow=none;startFill=0;startSize=5;endArrow=classicThin;endFill=1;endSize=5;jettySize=auto;orthogonalLoop=1;strokeWidth=1;fontFamily=Verdana;fontSize=12;entryX=0.5;entryY=1;entryDx=0;entryDy=0;entryPerimeter=0;strokeColor=light-dark(#FF0000,#FFFFFF);" edge="1" parent="1" target="9cDfr85fsHuK26jGcrTP-5">
          <mxGeometry relative="1" as="geometry">
            <mxPoint x="200" y="320" as="sourcePoint" />
            <mxPoint x="140" y="290" as="targetPoint" />
          </mxGeometry>
        </mxCell>
      </root>
    </mxGraphModel>
  </diagram>
</mxfile>
